# xmcd
#
# Track frame offsets:
# 150
# 4177
# 16917
# 31675
# 52365
# 71992
# 89407
# 101687
# 118020
# 130497
# 150877
# 166395
# 186712
#
# Disc length: 2571 seconds
#
#
# Revision: 0
# Processed by: cddbd v1.5.2PL0 Copyright (c) Steve Scherf et al.
# Submitted via: FreeRIP 2.951 
#
DISCID=b20a090d
DTITLE=The Jordanaires - Jordanaires - Souther Meets Soul
DYEAR=1900
DGENRE=Gospel
TTITLE0=Overture and Jubilee Fanfare
TTITLE1=Samson and Delilah
TTITLE2=Eyes on the Prize
TTITLE3=The Church in the Wildwood
TTITLE4=Wayfaring Stranger
TTITLE5=Dare to Be Brave
TTITLE6=Precious Memories
TTITLE7=Blessed Are You
TTITLE8=O Mighty God
TTITLE9=Take Care of My Mother
TTITLE10=Keep Looking Up
TTITLE11=The House of the Risen Son
TTITLE12=Eyes on the Prize (Reprise)
EXTD=Greenhaw AG2030
EXTT0=
EXTT1=
EXTT2=
EXTT3=
EXTT4=
EXTT5=
EXTT6=
EXTT7=
EXTT8=
EXTT9=
EXTT10=
EXTT11=
EXTT12=
PLAYORDER=
